<?xml version="1.0" encoding="UTF-8"?>
<svg width="900px" height="900px" viewBox="0 0 900 900" xmlns="http://www.w3.org/2000/svg" xmlns:xlink="http://www.w3.org/1999/xlink" version="1.1">
 <!-- Generated by Pixelmator Pro 2.1.3 -->
 <path id="Path" d="M607.051 397.444 L456.301 330.445 C451.966 328.518 447.018 328.518 442.683 330.445 L291.933 397.444 C291.598 397.594 291.363 397.846 291.028 398.03 290.559 398.264 290.057 398.415 289.621 398.7 289.253 398.951 288.968 399.269 288.616 399.537 287.392 400.447 286.318 401.544 285.434 402.787 285.099 403.256 284.747 403.675 284.445 404.144 283.947 405.029 283.521 405.953 283.173 406.907 283.022 407.36 282.787 407.778 282.653 408.231 282.233 409.702 282.013 411.223 282 412.753 L282 580.251 C282 586.884 285.886 592.864 291.949 595.56 L442.7 662.56 C444.877 663.531 447.189 664 449.5 664 451.832 663.94 454.126 663.392 456.234 662.392 L456.301 662.56 607.051 595.56 C613.104 592.876 617.005 586.873 617 580.251 L617 412.753 C617.005 406.131 613.104 400.128 607.051 397.444 Z M449.5 364.095 L559.012 412.753 449.5 461.411 427.591 451.68 340.005 412.753 449.5 364.095 Z M315.5 569.38 L315.5 438.531 432.75 490.64 432.75 621.472 315.5 569.38 Z M466.25 621.472 L466.25 490.64 583.5 438.531 583.5 569.38 466.25 621.472 Z" fill="#000000" fill-opacity="1" stroke="none"/>
 <path id="Path-1" d="M848.961 741.179 L676.418 698.627 681.493 654.19 536.289 553.243 528.869 500.935 687.238 603.877 694.727 538.3 Z" fill="#000000" fill-opacity="1" stroke="#000000" stroke-width="10" stroke-opacity="1" stroke-linejoin="round" stroke-linecap="round"/>
 <path id="Arrow-copy" d="M449.665 57 L524 185 473.452 185 473.452 410.014 425.878 410.014 425.878 185 375.331 185 Z" fill="#000000" fill-opacity="1" stroke="#000000" stroke-width="10" stroke-opacity="1" stroke-linejoin="round" stroke-linecap="round"/>
 <path id="Path-copy" d="M41.753 719.784 L216.739 691.484 213.811 646.206 364.234 556.65 374.21 504.489 210.496 594.94 206.174 528.12 Z" fill="#000000" fill-opacity="1" stroke="#000000" stroke-width="10" stroke-opacity="1" stroke-linejoin="round" stroke-linecap="round"/>
</svg>
