<svg id="b861e0a7-ece0-4cee-8ea9-d3d1f291a642" data-name="Layer 1" xmlns="http://www.w3.org/2000/svg" xmlns:xlink="http://www.w3.org/1999/xlink" viewBox="0 0 276.53 296.57"><defs><style>.ba68ef01-8783-4cc7-98a1-47f11a7660ea{fill:none;}.b29e300f-2311-4f2b-90b5-a5a43122650a{isolation:isolate;}.e7fd28bf-64b5-4395-852e-ef52dbb5cac0{clip-path:url(#ad1c9159-345a-4223-b94a-3c3bcf6a7d7a);}</style><clipPath id="ad1c9159-345a-4223-b94a-3c3bcf6a7d7a" transform="translate(0.15 -0.09)"><polygon class="ba68ef01-8783-4cc7-98a1-47f11a7660ea" points="138.78 137.45 138.21 290.34 24.02 202.59 5.31 60.39 138.78 137.45"/></clipPath></defs><g class="b29e300f-2311-4f2b-90b5-a5a43122650a"><path d="M270.53,55,137.81.09,5.67,54.83-.15,57.24l.82,6.25,10.92,6.3,122.17,70.54h0l5,2.9,5-2.89h0L264.56,70l11-6.39.85-6.24ZM138.77,131.67h0L16.59,61.13,137.82,10.91,259.65,61.28Z" transform="translate(0.15 -0.09)"/><path d="M270.53,55l-10.88,6.33L138.77,131.67h0l-5,2.9,0,5.76-.36,95.38-.16,44.51-.05,12.58,5,3.86,5-3.86,112.92-87.6L275.53,63.61l.85-6.24ZM246.77,199.79,143.25,280.11l.16-44.4.35-95.37h0L264.56,70Z" transform="translate(0.15 -0.09)"/><path d="M138.77,131.67h0L16.59,61.13,5.67,54.83-.15,57.24l.82,6.25L19.34,205.3,133.2,292.8l5,3.86,5-3.86.05-12.69.16-44.4.36-95.38,0-5.76Zm-5.52,148.55L28.71,199.89,11.59,69.79l122.17,70.54-.35,95.38Z" transform="translate(0.15 -0.09)"/><g class="b29e300f-2311-4f2b-90b5-a5a43122650a"><g class="e7fd28bf-64b5-4395-852e-ef52dbb5cac0"><path d="M110.2,145.87,73.62,124.16l-.88,19.78q-.28,5.72-.5,11.74t-.38,12.14q-.17,6.12-.28,12.49t-.16,12.79q-1.07-7.23-2.42-15.55T66,159.5q-1.69-9.76-3.7-20.82-2.06-11.24-4.44-23.89L26.92,96.45l26.52,108.9L96,237.55l14.19-91.68" transform="translate(0.15 -0.09)"/></g></g></g></svg>